<svg 
 xmlns="http://www.w3.org/2000/svg"
 xmlns:xlink="http://www.w3.org/1999/xlink"
 width="35px" height="17px">
<path fill-rule="evenodd"  fill="rgb(73, 73, 73)"
 d="M0.231,7.953 L8.187,0.228 C8.330,0.088 8.529,0.001 8.749,0.001 C9.189,0.001 9.544,0.347 9.544,0.774 C9.544,0.988 9.455,1.181 9.311,1.320 L2.714,7.727 L34.206,7.727 C34.646,7.727 35.002,8.073 35.002,8.499 C35.002,8.927 34.646,9.272 34.206,9.272 L2.714,9.272 L9.311,15.679 C9.455,15.819 9.544,16.011 9.544,16.225 C9.544,16.652 9.189,16.998 8.749,16.998 C8.529,16.998 8.330,16.912 8.187,16.771 L0.231,9.046 C0.087,8.906 -0.002,8.713 -0.002,8.499 C-0.002,8.286 0.087,8.094 0.231,7.953 Z"/>
</svg>