<svg 
 xmlns="http://www.w3.org/2000/svg"
 xmlns:xlink="http://www.w3.org/1999/xlink"
 width="35px" height="17px">
<path fill-rule="evenodd"  fill="rgb(73, 73, 73)"
 d="M34.769,7.953 L26.813,0.228 C26.670,0.088 26.471,0.001 26.251,0.001 C25.811,0.001 25.455,0.347 25.455,0.774 C25.455,0.988 25.545,1.181 25.689,1.320 L32.286,7.727 L0.794,7.727 C0.354,7.727 -0.002,8.073 -0.002,8.499 C-0.002,8.927 0.354,9.272 0.794,9.272 L32.286,9.272 L25.689,15.679 C25.545,15.819 25.455,16.011 25.455,16.225 C25.455,16.652 25.811,16.998 26.251,16.998 C26.471,16.998 26.670,16.912 26.813,16.771 L34.769,9.046 C34.913,8.906 35.002,8.713 35.002,8.499 C35.002,8.286 34.913,8.094 34.769,7.953 Z"/>
</svg>